<?xml version="1.0" encoding="UTF-8"?>
<svg width="200px" height="40px" viewBox="0 0 200 40" version="1.1" xmlns="http://www.w3.org/2000/svg" xmlns:xlink="http://www.w3.org/1999/xlink">
    <!-- Generator: Sketch 44.1 (41455) - http://www.bohemiancoding.com/sketch -->
    <title>__global-header-logo</title>
    <desc>Created with Sketch.</desc>
    <defs>
        <linearGradient x1="74.1074219%" y1="9.46614583%" x2="30.0086806%" y2="77.4717134%" id="linearGradient-1">
            <stop stop-color="#FFFFFF" offset="0%"></stop>
            <stop stop-color="#FFFFFF" stop-opacity="0" offset="100%"></stop>
        </linearGradient>
    </defs>
    <g id="Exports" stroke="none" stroke-width="1" fill="none" fill-rule="evenodd">
        <g id="__global-header-logo">
            <g id="Group-2" transform="translate(0.000000, 6.000000)">
                <polygon id="Fill-2" fill="#FFFFFF" opacity="0.5" points="116.108453 0.98245614 116.108453 27.1812865 133.014354 27.1812865 133.014354 21.2865497 121.861314 21.2865497 121.861314 16.8654971 129.824561 16.8654971 129.824561 11.2982456 121.861314 11.2982456 121.861314 6.87719298 133.014354 6.87719298 133.014354 0.98245614"></polygon>
                <polygon id="Fill-2-Copy" fill="#FFFFFF" opacity="0.5" points="161.722488 0.98245614 161.722488 27.1812865 178.628389 27.1812865 178.628389 21.2865497 167.475349 21.2865497 167.475349 16.8654971 175.438596 16.8654971 175.438596 11.2982456 167.475349 11.2982456 167.475349 6.87719298 178.628389 6.87719298 178.628389 0.98245614"></polygon>
                <polygon id="Combined-Shape" fill="#FFFFFF" opacity="0.5" points="150.398724 27.1812865 144.657097 27.1812865 144.657097 17.3567251 136.682616 0.98245614 143.062201 0.98245614 147.607656 10.1520468 151.905154 0.98245614 158.284739 0.98245614 150.398724 17.1750731"></polygon>
                <path d="M190.558644,27.8667652 C196.244097,28.2724361 199.66001,24.3043412 199.942157,20.1871901 C200.198885,16.4409535 198.065106,13.0459679 193.587018,11.794625 L190.436806,10.898939 C188.811238,10.4474954 188.168308,9.4698003 188.254731,8.20869097 C188.353864,6.76212437 189.726299,5.48095663 191.711162,5.62258138 C193.487432,5.7493226 194.867392,6.12857667 196.465083,7.37489821 C196.465083,7.37489821 198.625676,3.00541335 198.606186,2.98524782 C197.31052,1.64464518 194.903339,0.632156243 192.100665,0.432178647 C187.525388,0.105721581 183.316728,3.30906847 182.976118,8.27932292 C182.709222,12.1739253 184.96172,15.316472 188.940265,16.4576257 L192.15776,17.3581126 C193.716045,17.8047553 194.625567,18.8387452 194.53406,20.1740375 C194.422218,21.8060613 193.067576,22.8275889 190.981788,22.6787629 C188.32542,22.4892246 186.883933,21.4600716 185.508445,19.2801315 L183.194217,24.1065977 C184.63229,26.0647881 186.999569,27.6128166 190.558644,27.8667652 Z" id="Combined-Shape" fill="#FFFFFF" opacity="0.5"></path>
                <polygon id="Fill-12" fill="#FFFFFF" points="59.9681021 6.87719298 59.9681021 27.1812865 54.2264753 27.1812865 54.2264753 6.87719298 46.5709729 6.87719298 46.5709729 0.98245614 67.6236045 0.98245614 67.6236045 6.87719298"></polygon>
                <path d="M8.60102949,27.1756403 L0,27.1756403 L0,0.98245614 L8.60102949,0.98245614 C16.6662548,0.98245614 22.2488038,6.62848961 22.2488038,14 C22.2488038,21.4463481 16.6662548,27.1756403 8.60102949,27.1756403 Z M16.3363138,14.1538859 L16.3363138,14.0790482 C16.3363138,9.43911272 13.2316147,6.22222222 8.61244019,6.22222222 L5.74162679,6.22222222 L5.74162679,21.9415205 L8.61244019,21.9415205 C13.2316147,21.9415205 16.3363138,18.7938213 16.3363138,14.1538859 Z" id="D" fill="#FFFFFF"></path>
                <path d="M102.551834,20.6315789 L110.526316,4.25730994 L105.422648,1.6374269 L96.1722488,20.6315789 L102.551834,20.6315789 Z" id="Combined-Shape" fill="url(#linearGradient-1)" opacity="0.7"></path>
                <polygon id="Combined-Shape" fill="#FFFFFF" points="92.9824561 0.98245614 86.6028708 0.98245614 99.3620415 27.1812865 102.551834 20.6315789"></polygon>
                <ellipse id="Oval-3" fill="#FFFFFF" cx="107.974482" cy="2.94736842" rx="2.8708134" ry="2.94736842"></ellipse>
                <path d="M35.5661882,13.2631579 L32.5358852,19.4853801 L38.5964912,19.4853801 L35.5661882,13.2631579 Z M29.1068581,27.1812865 L22.6475279,27.1812865 L35.4864434,0.49122807 L48.4848485,27.1812865 L42.0255183,27.1812865 L40.6698565,24.3976608 L30.4625199,24.3976608 L29.1068581,27.1812865 Z" id="Fill-10-Copy-2" fill="#FFFFFF"></path>
                <path d="M78.3094099,13.2631579 L75.2791069,19.4853801 L81.3397129,19.4853801 L78.3094099,13.2631579 Z M72.169059,27.1812865 L65.7097289,27.1812865 L78.5486443,0.49122807 L91.5470494,27.1812865 L85.0877193,27.1812865 L83.7320574,24.3976608 L73.5247209,24.3976608 L72.169059,27.1812865 Z" id="Fill-10-Copy-3" fill="#FFFFFF"></path>
            </g>
        </g>
    </g>
</svg>